# xmcd
#
# Track frame offsets:
#	183
#	14380
#	27768
#	44560
#	60875
#	74958
#	87888
#	104675
#	119965
#	136328
#	149178
#	164813
#	180140
#	194785
#	210403
#	227473
#
# Disc length: 3207 seconds
#
# Revision: 3
# Processed by: cddbd v1.5.2PL0 Copyright (c) Steve Scherf et al.
# Submitted via: EasyCDDAExtractor 11.0.0.1
#
DISCID=f60c8510
DTITLE=Various Artist - Hardcore Compilation Vol. 6
DYEAR=1994
DGENRE=Dance
TTITLE0=Reel 2 Real - I Like To Move It
TTITLE1=2 Brothers On The 4th Floor - Never Alone
TTITLE2=Ice Mc - Think About The Way
TTITLE3=Lost Tribe - My Vision, One Nation, One Tribe
TTITLE4=Illusive - Take Me Higher
TTITLE5=Jamie Dee - Don't Be Shy
TTITLE6=Amos - Only Saw Today Medley Istant Karma
TTITLE7=Chiquetere Band - Chiquetere (Remix)
TTITLE8=Usura - Drive Me Crazy (All Night Long)
TTITLE9=Systematic - I Got The Music
TTITLE10=DJH Feat. Stefy - My Body
TTITLE11=Masoko Solo - Pessa Pessa
TTITLE12=Datura - Fade To Grey (Remix By Molella)
TTITLE13=Einstein Doctor D.J. - Automatic Sex
TTITLE14=Afrika Bambaataa - Pupunanny
TTITLE15=Mo-Do - Eins, Zwei, Polizei
EXTD=
EXTT0=
EXTT1=
EXTT2=
EXTT3=
EXTT4=
EXTT5=
EXTT6=
EXTT7=
EXTT8=
EXTT9=
EXTT10=
EXTT11=
EXTT12=
EXTT13=
EXTT14=
EXTT15=
PLAYORDER=
